[img]http://img339.imageshack.us/img339/2831/thecollection.jpg[/img]

[b][size=200][color=black]PLOT[/color][/size][/b]

[code]A man who escapes from the vicious grips of the serial 
killer known as "The Collector" is blackmailed to rescue an innocent 
girl from the killer's booby-trapped warehouse. [/code]

[b][size=200][color=black]IMDB[/color][/size][/b]

[code]http://www.imdb.com/title/tt1748227/[/code]

[b][size=200][color=black]MOVIE INFO[/color][/size][/b]

[code]The Collection [2012] BRRip x264 AAC-V3nom

Format                                   : MPEG-4
Format profile                           : Base Media / Version 2
Codec ID                                 : mp42
File size                                : 293 MiB
Duration                                 : 1h 21mn
Overall bit rate mode                    : Variable
Overall bit rate                         : 502 Kbps
Encoded date                             : UTC 2013-01-27 12:39:00
Tagged date                              : UTC 2013-01-27 13:04:57

Video
ID                                       : 1
Format                                   : AVC
Format/Info                              : Advanced Video Codec
Format profile                           : Main@L2.1
Format settings, CABAC                   : Yes
Format settings, ReFrames                : 4 frames
Codec ID                                 : avc1
Codec ID/Info                            : Advanced Video Coding
Duration                                 : 1h 21mn
Bit rate mode                            : Variable
Bit rate                                 : 414 Kbps
Width                                    : 640 pixels
Height                                   : 272 pixels
Display aspect ratio                     : 2.35:1
Frame rate mode                          : Constant
Frame rate                               : 24.000 fps
Color space                              : YUV
Chroma subsampling                       : 4:2:0
Bit depth                                : 8 bits
Scan type                                : Progressive
Bits/(Pixel*Frame)                       : 0.099
Stream size                              : 235 MiB (80%)
Writing library                          : x264 core 112

Audio
ID                                       : 2
Format                                   : AAC
Format/Info                              : Advanced Audio Codec
Format profile                           : LC
Codec ID                                 : 40
Duration                                 : 1h 21mn
Bit rate mode                            : Variable
Bit rate                                 : 96.0 Kbps
Maximum bit rate                         : 119 Kbps
Channel(s)                               : 2 channels
Channel positions                        : Front: L R
Sampling rate                            : 48.0 KHz
Compression mode                         : Lossy
Delay relative to video                  : 83ms
Stream size                              : 56.0 MiB (19%)
Encoded date                             : UTC 2013-01-27 12:39:00
Tagged date                              : UTC 2013-01-27 13:04:53[/code]

[b][size=200][color=black]SOURCE[/color][/size][/b]

[code]The.Collection.2012.BDRip.XviD.Acesn8s(Thanks)[/code]

[b][size=200][color=black]SCREENSHOTS[/color][/size][/b]

[img]http://img29.imageshack.us/img29/198/thecollection2012brripx.jpg[/img]

[img]http://kastatic.com/i2/users/133df62bbf28e62494bb17fe11078f1a.gif[/img][img]http://kastatic.com/i2/users/133df62bbf28e62494bb17fe11078f1a.gif[/img]